<?xml version="1.0" encoding="utf-8"?>
<svg xmlns="http://www.w3.org/2000/svg" xmlns:xlink="http://www.w3.org/1999/xlink" x="0px" y="0px" viewBox="0 0 200 200" xml:space="preserve">
<g>
	<rect class="elgg-svg-avatar-background" style="fill:#7A8184;" width="200" height="200"/>
	<polyline class="elgg-svg-avatar-shade" style="opacity:0.2;fill:#BCBFC4;" points="200,0 200,200 0,200"/>
	<path class="elgg-svg-avatar-path" style="fill:#FFFFFF;" d="M145.9,133.1c0,5.2-1.6,9.3-4.8,12.3c-3.2,3-7.4,4.5-12.6,4.5H71.5c-5.3,0-9.5-1.5-12.6-4.5
		c-3.2-3-4.8-7.2-4.8-12.3c0-2.3,0.1-4.6,0.2-6.7c0.2-2.2,0.5-4.6,0.9-7.1c0.5-2.5,1.1-4.9,1.7-7.1c0.7-2.2,1.6-4.3,2.8-6.4
		c1.2-2,2.5-3.8,4.1-5.3c1.5-1.4,3.4-2.6,5.6-3.5c2.2-0.8,4.6-1.3,7.3-1.3c0.4,0,1.3,0.5,2.7,1.4c1.4,0.9,3.1,2,4.8,3.1
		c1.8,1.2,4.1,2.2,7,3.1c2.9,0.9,5.8,1.4,8.7,1.4c2.9,0,5.8-0.5,8.7-1.4c2.9-0.9,5.2-2,7-3.1s3.4-2.2,4.8-3.1c1.4-1,2.3-1.4,2.7-1.4
		c2.6,0,5,0.4,7.3,1.3c2.2,0.9,4.1,2,5.6,3.5c1.5,1.4,2.9,3.2,4.1,5.3c1.2,2,2.1,4.2,2.8,6.4c0.7,2.2,1.3,4.5,1.7,7.1
		c0.5,2.5,0.7,4.9,0.9,7.1C145.8,128.6,145.9,130.9,145.9,133.1z M125,75c0,6.9-2.4,12.8-7.3,17.7c-4.9,4.9-10.8,7.3-17.7,7.3
		c-6.9,0-12.8-2.4-17.7-7.3C77.4,87.8,75,81.9,75,75c0-6.9,2.4-12.8,7.3-17.7C87.2,52.4,93.1,50,100,50c6.9,0,12.8,2.4,17.7,7.3
		C122.6,62.2,125,68.1,125,75z"/>
</g>
</svg>
