<?xml version="1.0" encoding="utf-8"?>
<svg xmlns="http://www.w3.org/2000/svg" xmlns:xlink="http://www.w3.org/1999/xlink" x="0px" y="0px" viewBox="0 0 200 200" xml:space="preserve">
<g>
	<rect class="elgg-svg-avatar-background" style="fill:#7A8184;" width="200" height="200"/>
	<polyline class="elgg-svg-avatar-shade" style="opacity:0.2;fill:#BCBFC4;" points="200,0 200,200 0,200"/>
	<path class="elgg-svg-avatar-path" style="fill:#FFFFFF;" d="M79.5,100c-6,0.2-11,2.6-14.8,7.1h-7.5c-3,0-5.6-0.7-7.7-2.3
		c-2.1-1.5-3.1-3.7-3.1-6.6c0-13.1,2.3-19.7,6.9-19.7c0.2,0,1,0.4,2.4,1.2c1.4,0.8,3.2,1.6,5.4,2.4c2.2,0.8,4.4,1.2,6.6,1.2
		c2.5,0,5-0.4,7.4-1.3c-0.2,1.4-0.3,2.6-0.3,3.7C75,90.9,76.5,95.6,79.5,100z M139.3,135.5c0,4.5-1.3,8-4.1,10.6
		c-2.7,2.6-6.3,3.9-10.8,3.9H75.6c-4.5,0-8.1-1.3-10.8-3.9c-2.7-2.6-4.1-6.1-4.1-10.6c0-2,0.1-3.9,0.2-5.8c0.1-1.9,0.4-3.9,0.8-6.1
		c0.4-2.2,0.9-4.2,1.5-6.1c0.6-1.9,1.4-3.7,2.4-5.4c1-1.8,2.2-3.3,3.5-4.5s2.9-2.3,4.8-3c1.9-0.7,4-1.1,6.2-1.1
		c0.4,0,1.2,0.4,2.4,1.2c1.2,0.8,2.6,1.7,4.1,2.7c1.5,1,3.5,1.9,6,2.7c2.5,0.8,5,1.2,7.5,1.2c2.5,0,5-0.4,7.5-1.2
		c2.5-0.8,4.5-1.7,6-2.7c1.5-1,2.9-1.9,4.1-2.7c1.2-0.8,2-1.2,2.4-1.2c2.3,0,4.3,0.4,6.2,1.1c1.9,0.7,3.5,1.7,4.8,3
		c1.3,1.2,2.5,2.8,3.5,4.5s1.8,3.6,2.4,5.4c0.6,1.9,1.1,3.9,1.5,6.1c0.4,2.2,0.6,4.2,0.8,6.1C139.2,131.7,139.3,133.6,139.3,135.5z
		 M82.1,64.3c0,4-1.4,7.3-4.2,10.1c-2.8,2.8-6.2,4.2-10.1,4.2c-4,0-7.3-1.4-10.1-4.2s-4.2-6.2-4.2-10.1c0-4,1.4-7.3,4.2-10.1
		c2.8-2.8,6.2-4.2,10.1-4.2c4,0,7.3,1.4,10.1,4.2C80.7,57,82.1,60.3,82.1,64.3z M121.4,85.7c0,5.9-2.1,11-6.3,15.1
		c-4.2,4.2-9.2,6.3-15.1,6.3s-11-2.1-15.1-6.3c-4.2-4.2-6.3-9.2-6.3-15.1s2.1-11,6.3-15.1s9.2-6.3,15.1-6.3s11,2.1,15.1,6.3
		C119.4,74.8,121.4,79.8,121.4,85.7z M153.6,98.3c0,2.9-1.1,5.1-3.1,6.6c-2.1,1.5-4.7,2.3-7.7,2.3h-7.5c-3.8-4.6-8.7-7-14.8-7.1
		c3-4.3,4.5-9.1,4.5-14.3c0-1.1-0.1-2.3-0.3-3.7c2.5,0.8,4.9,1.3,7.4,1.3c2.2,0,4.4-0.4,6.6-1.2c2.2-0.8,4.1-1.6,5.4-2.4
		c1.4-0.8,2.2-1.2,2.4-1.2C151.3,78.6,153.6,85.1,153.6,98.3z M146.4,64.3c0,4-1.4,7.3-4.2,10.1c-2.8,2.8-6.2,4.2-10.1,4.2
		c-3.9,0-7.3-1.4-10.1-4.2c-2.8-2.8-4.2-6.2-4.2-10.1c0-4,1.4-7.3,4.2-10.1c2.8-2.8,6.2-4.2,10.1-4.2c3.9,0,7.3,1.4,10.1,4.2
		C145,57,146.4,60.3,146.4,64.3z"/>
</g>
</svg>
