<?xml version="1.0" encoding="utf-8"?>
<svg xmlns="http://www.w3.org/2000/svg" xmlns:xlink="http://www.w3.org/1999/xlink" x="0px" y="0px" viewBox="0 0 200 200" xml:space="preserve">
<g>
	<rect class="elgg-svg-avatar-background" style="fill:#7A8184;" width="200" height="200"/>
	<polyline class="elgg-svg-avatar-shade" style="opacity:0.2;fill:#BCBFC4;" points="200,0 200,200 0,200"/>
	<path class="elgg-svg-avatar-path" style="fill:#FFFFFF;" d="M111.4,128.1v18.7c0,0.8-0.3,1.6-1,2.2c-0.6,0.6-1.3,1-2.2,1H89.5c-0.8,0-1.6-0.3-2.2-1
		c-0.6-0.6-1-1.3-1-2.2v-18.7c0-0.8,0.3-1.6,1-2.2c0.6-0.6,1.3-1,2.2-1h18.7c0.8,0,1.6,0.3,2.2,1
		C111.1,126.6,111.4,127.3,111.4,128.1z M136.1,81.2c0,2.8-0.4,5.4-1.2,7.9c-0.8,2.4-1.7,4.4-2.8,6c-1,1.5-2.4,3.1-4.3,4.7
		c-1.8,1.6-3.4,2.7-4.5,3.4c-1.1,0.7-2.8,1.6-4.8,2.8c-2.2,1.2-3.9,2.9-5.4,5.1c-1.4,2.2-2.2,3.9-2.2,5.2c0,0.9-0.3,1.7-1,2.5
		c-0.6,0.8-1.3,1.2-2.2,1.2H89.2c-0.8,0-1.4-0.5-2-1.4c-0.6-1-0.8-1.9-0.8-2.9v-3.5c0-4.3,1.7-8.4,5.1-12.2
		c3.4-3.8,7.1-6.7,11.2-8.5c3.1-1.4,5.3-2.9,6.6-4.4s1.9-3.5,1.9-5.9c0-2.2-1.2-4.1-3.6-5.8c-2.4-1.7-5.2-2.5-8.4-2.5
		c-3.4,0-6.2,0.7-8.4,2.3c-1.8,1.3-4.6,4.3-8.4,9c-0.7,0.8-1.5,1.2-2.4,1.2c-0.6,0-1.3-0.2-1.9-0.6l-12.8-9.8
		c-0.7-0.5-1.1-1.2-1.2-1.9c-0.1-0.8,0-1.5,0.4-2.2C72.7,56.9,84.8,50,100.7,50c4.2,0,8.4,0.8,12.6,2.4c4.2,1.6,8,3.8,11.4,6.5
		c3.4,2.7,6.1,6,8.3,9.9C135.1,72.7,136.1,76.9,136.1,81.2z"/>
</g>
</svg>
