<?xml version="1.0" encoding="utf-8"?>
<svg xmlns="http://www.w3.org/2000/svg" xmlns:xlink="http://www.w3.org/1999/xlink" x="0px" y="0px" viewBox="0 0 200 200" xml:space="preserve">
<g>
	<rect class="elgg-svg-avatar-background" style="fill:#7A8184;" width="200" height="200"/>
	<polyline class="elgg-svg-avatar-shade" style="opacity:0.2;fill:#BCBFC4;" points="200,0 200,200 0,200"/>
	<path class="elgg-svg-avatar-path" style="fill:#FFFFFF;" d="M139.3,70.5c1.1,1.1,1.9,2.5,2.7,4.3c0.7,1.8,1.1,3.5,1.1,4.9v64.6c0,1.5-0.5,2.8-1.6,3.8
		c-1.1,1.1-2.3,1.6-3.8,1.6H62.3c-1.5,0-2.8-0.5-3.8-1.6c-1.1-1.1-1.6-2.3-1.6-3.8V54.5c0-1.5,0.5-2.8,1.6-3.8
		c1.1-1.1,2.3-1.6,3.8-1.6h50.3c1.5,0,3.1,0.4,4.9,1.1s3.2,1.7,4.3,2.7L139.3,70.5z M114.4,56.8v21.1h21.1
		c-0.4-1.1-0.8-1.8-1.2-2.3L116.7,58C116.2,57.6,115.4,57.2,114.4,56.8z M135.9,142.6V85.2h-23.4c-1.5,0-2.8-0.5-3.8-1.6
		c-1.1-1.1-1.6-2.3-1.6-3.8V56.5h-43v86.2L135.9,142.6L135.9,142.6z"/>
	<path class="elgg-svg-avatar-path" style="fill:#FFFFFF;" d="M105.9,112.5c0-1.9-0.7-3.5-2-4.8s-3-2-4.8-2c-1.9,0-3.5,0.7-4.8,2s-2,3-2,4.8c0,1.9,0.7,3.5,2,4.8
		s3,2,4.8,2c1.9,0,3.5-0.7,4.8-2C105.2,116,105.9,114.4,105.9,112.5z M119.6,109.6v6c0,0.2-0.1,0.4-0.2,0.6s-0.3,0.3-0.5,0.3
		l-4.9,0.8c-0.3,1-0.7,1.8-1,2.4c0.6,0.9,1.6,2.1,2.9,3.7c0.2,0.2,0.3,0.4,0.3,0.7s-0.1,0.4-0.2,0.6c-0.5,0.7-1.4,1.6-2.6,2.9
		c-1.3,1.3-2.1,1.9-2.5,1.9c-0.2,0-0.4-0.1-0.7-0.2l-3.7-2.9c-0.8,0.4-1.6,0.8-2.4,1c-0.3,2.4-0.5,4.1-0.8,5c-0.1,0.5-0.4,0.8-1,0.8
		h-6c-0.3,0-0.5-0.1-0.7-0.2c-0.2-0.2-0.3-0.3-0.3-0.6l-0.8-4.9c-0.8-0.3-1.7-0.6-2.4-1l-3.7,2.9c-0.2,0.2-0.4,0.2-0.7,0.2
		s-0.5-0.1-0.7-0.3c-2.3-2-3.7-3.5-4.4-4.5c-0.1-0.2-0.2-0.4-0.2-0.6s0.1-0.4,0.2-0.6c0.3-0.4,0.7-1,1.4-1.8
		c0.6-0.8,1.1-1.4,1.4-1.9c-0.5-0.9-0.8-1.8-1.1-2.6l-4.9-0.7c-0.2,0-0.4-0.1-0.6-0.3c-0.1-0.2-0.2-0.4-0.2-0.6v-6
		c0-0.2,0.1-0.4,0.2-0.6s0.3-0.3,0.5-0.3l5-0.8c0.3-0.8,0.6-1.6,1-2.5c-0.7-1-1.7-2.3-2.9-3.7c-0.2-0.2-0.3-0.4-0.3-0.6
		s0.1-0.4,0.2-0.6c0.5-0.6,1.3-1.6,2.6-2.9c1.3-1.3,2.1-1.9,2.5-1.9c0.2,0,0.5,0.1,0.7,0.3l3.7,2.9c0.8-0.4,1.6-0.8,2.4-1
		c0.3-2.4,0.5-4.1,0.8-5c0.1-0.5,0.4-0.8,1-0.8h6c0.3,0,0.5,0.1,0.7,0.2c0.2,0.2,0.3,0.3,0.3,0.6l0.8,4.9c0.8,0.3,1.7,0.6,2.4,1
		L110,96c0.2-0.2,0.4-0.2,0.6-0.2s0.5,0.1,0.7,0.3c2.3,2.1,3.7,3.6,4.4,4.6c0.1,0.1,0.2,0.3,0.2,0.6c0,0.2-0.1,0.4-0.2,0.6
		c-0.3,0.4-0.7,1-1.4,1.8c-0.6,0.8-1.1,1.4-1.4,1.9c0.5,0.9,0.8,1.8,1.1,2.6l4.9,0.8c0.2,0,0.4,0.1,0.6,0.3
		C119.5,109.1,119.6,109.3,119.6,109.6z"/>
</g>
</svg>
