<?xml version="1.0" encoding="utf-8"?>
<svg xmlns="http://www.w3.org/2000/svg" xmlns:xlink="http://www.w3.org/1999/xlink" x="0px" y="0px" viewBox="0 0 200 200" xml:space="preserve">
<g>
	<rect class="elgg-svg-avatar-background" style="fill:#7A8184;" width="200" height="200"/>
	<polyline class="elgg-svg-avatar-shade" style="opacity:0.2;fill:#BCBFC4;" points="200,0 200,200 0,200"/>
	<path class="elgg-svg-avatar-path" style="fill:#FFFFFF;" d="M93,71.4V64h-7v7h7V71.4z M100,79v-8h-7v8H100z M93,85.7V79h-7v7h7V85.7z M100,93v-7h-7v7H100z
		 M139.3,71.2c1.1,1.1,1.9,2.5,2.6,4.3s1.1,3.5,1.1,4.9V145c0,1.5-0.5,2.6-1.5,3.6c-1.1,1.1-2.3,1.4-3.8,1.4H62.3
		c-1.5,0-2.7-0.3-3.8-1.4c-1.1-1.1-1.5-2.1-1.5-3.6V55.2c0-1.5,0.5-2.7,1.5-3.7c1.1-1.1,2.3-1.5,3.8-1.5h50.3c1.5,0,3.1,0.3,4.9,1
		s3.2,1.6,4.3,2.6L139.3,71.2z M114,57.5V79h21.5c-0.4-2-0.8-2.1-1.2-2.5l-17.8-17.7C116,58.4,115,57.8,114,57.5z M136,143.2V86
		h-23.5c-1.5,0-2.8-0.7-3.9-1.7c-1.1-1.1-1.7-2.5-1.7-3.9V57h-7v7h-7v-7h-29v86h72v0.2H136z M100.7,102.7l6,19.6
		c0.3,1,0.5,2,0.5,2.9c0,3.1-1.3,5.7-4.1,7.7c-2.7,2-6.1,3.1-10.3,3.1s-7.6-1-10.3-3.1c-2.7-2-4.1-4.6-4.1-7.7c0-1,0.3-1.9,0.6-2.9
		c0.8-2.4,2.9-9.8,6.9-22.2V93h7v7h4.3c0.8,0,1.6,0.3,2.2,0.8C100.1,101.3,100.5,102,100.7,102.7z M92.8,128.8c2,0,3.7-0.4,5.1-1.1
		s2.1-1.6,2.1-2.5c0-1-0.7-1.8-2.1-2.5s-3.1-1.1-5.1-1.1s-3.7,0.4-5.1,1.1s-2.1,1.6-2.1,2.5c0,1,0.7,1.8,2.1,2.5
		C89.2,128.5,90.8,128.8,92.8,128.8z"/>
</g>
</svg>
