<?xml version="1.0" encoding="utf-8"?>
<svg xmlns="http://www.w3.org/2000/svg" xmlns:xlink="http://www.w3.org/1999/xlink" x="0px" y="0px" viewBox="0 0 200 200" xml:space="preserve">
<g>
	<rect class="elgg-svg-avatar-background" style="fill:#7A8184;" width="200" height="200"/>
	<polyline class="elgg-svg-avatar-shade" style="opacity:0.2;fill:#BCBFC4;" points="200,0 200,200 0,200"/>
	<path class="elgg-svg-avatar-path" style="fill:#FFFFFF;" d="M139.1,71.2c1,1,1.9,2.5,2.7,4.2c0.7,1.8,1.1,3.4,1.1,4.9v64.3c0,1.5-0.5,2.8-1.6,3.8
		s-2.3,1.6-3.8,1.6h-75c-1.5,0-2.8-0.5-3.8-1.6c-1-1-1.6-2.3-1.6-3.8V55.3c0-1.5,0.5-2.8,1.6-3.8c1-1,2.3-1.6,3.8-1.6h50
		c1.5,0,3.1,0.4,4.9,1.1s3.2,1.6,4.2,2.7L139.1,71.2z M114.3,57.6v21h21c-0.4-1.1-0.8-1.8-1.2-2.3l-17.5-17.5
		C116.1,58.4,115.4,58,114.3,57.6z M135.7,142.9V85.8h-23.2c-1.5,0-2.8-0.5-3.8-1.6c-1-1-1.6-2.3-1.6-3.8V57.2H64.2v85.7H135.7z
		 M83.9,92.9c0.3-0.4,0.7-0.6,1.2-0.7s0.9,0.1,1.3,0.4l2.8,2.1c0.4,0.3,0.6,0.7,0.7,1.2s-0.1,0.9-0.4,1.3l-10.2,13.6l10.2,13.6
		c0.3,0.4,0.4,0.9,0.4,1.3c-0.1,0.5-0.3,0.9-0.7,1.2l-2.8,2.1c-0.4,0.3-0.9,0.4-1.3,0.4c-0.5-0.1-0.9-0.3-1.2-0.7l-12.6-16.8
		c-0.5-0.7-0.5-1.4,0-2.1L83.9,92.9z M128.7,109.7c0.5,0.7,0.5,1.4,0,2.1l-12.6,16.8c-0.3,0.4-0.7,0.6-1.2,0.7s-0.9-0.1-1.3-0.4
		l-2.8-2.1c-0.4-0.3-0.6-0.7-0.7-1.2s0.1-0.9,0.4-1.3l10.2-13.6l-10.2-13.6c-0.3-0.4-0.4-0.9-0.4-1.3c0.1-0.5,0.3-0.9,0.7-1.2
		l2.8-2.1c0.4-0.3,0.9-0.4,1.3-0.4c0.5,0.1,0.9,0.3,1.2,0.7L128.7,109.7z M94.1,135.4c-0.5-0.1-0.9-0.3-1.1-0.7
		c-0.3-0.4-0.4-0.9-0.3-1.3l7.7-46.4c0.1-0.5,0.3-0.9,0.7-1.1c0.4-0.3,0.9-0.4,1.3-0.3l3.5,0.6c0.5,0.1,0.9,0.3,1.1,0.7
		c0.3,0.4,0.4,0.9,0.3,1.3l-7.7,46.4c-0.1,0.5-0.3,0.9-0.7,1.1c-0.4,0.3-0.9,0.4-1.3,0.3L94.1,135.4z"/>
</g>
</svg>
