<?xml version="1.0" encoding="utf-8"?>
<svg xmlns="http://www.w3.org/2000/svg" xmlns:xlink="http://www.w3.org/1999/xlink" x="0px" y="0px" viewBox="0 0 200 200" xml:space="preserve">
<g>
	<rect class="elgg-svg-avatar-background" style="fill:#7A8184;" width="200" height="200"/>
	<polyline class="elgg-svg-avatar-shade" style="opacity:0.2;fill:#BCBFC4;" points="200,0 200,200 0,200"/>
	<path class="elgg-svg-avatar-path" style="fill:#FFFFFF;" d="M138.8,70.5c1.1,1.1,1.9,2.5,2.7,4.3c0.7,1.8,1.1,3.5,1.1,4.9v64.6c0,1.5-0.5,2.8-1.6,3.8
		c-1.1,1.1-2.3,1.6-3.8,1.6H61.8c-1.5,0-2.8-0.5-3.8-1.6c-1.1-1.1-1.6-2.3-1.6-3.8V54.6c0-1.5,0.5-2.8,1.6-3.8s2.3-1.6,3.8-1.6H112
		c1.5,0,3.1,0.4,4.9,1.1c1.8,0.7,3.2,1.7,4.3,2.7L138.8,70.5z M113.8,56.8v21.1h21.1c-0.4-1.1-0.8-1.8-1.2-2.3l-17.6-17.6
		C115.7,57.6,114.9,57.2,113.8,56.8z M135.4,142.6V85.1H112c-1.5,0-2.8-0.5-3.8-1.6s-1.6-2.3-1.6-3.8V56.4H63.6v86.2L135.4,142.6
		L135.4,142.6z"/>
</g>
</svg>
