<?xml version="1.0" encoding="utf-8"?>
<svg xmlns="http://www.w3.org/2000/svg" xmlns:xlink="http://www.w3.org/1999/xlink" x="0px" y="0px" viewBox="0 0 200 200" xml:space="preserve">
<g>
	<rect class="elgg-svg-avatar-background" style="fill:#7A8184;" width="200" height="200"/>
	<polyline class="elgg-svg-avatar-shade" style="opacity:0.2;fill:#BCBFC4;" points="200,0 200,200 0,200"/>
	<path style="fill:#FFFFFF;" d="M139.3,71.2c1.1,1.1,1.9,2.5,2.7,4.3c0.7,1.8,1.1,3.5,1.1,4.9V145c0,1.5-0.5,2.8-1.6,3.8
		c-1.1,1.1-2.3,1.6-3.8,1.6H62.3c-1.5,0-2.8-0.5-3.8-1.6c-1.1-1.1-1.6-2.3-1.6-3.8V55.2c0-1.5,0.5-2.8,1.6-3.8s2.3-1.6,3.8-1.6h50.3
		c1.5,0,3.1,0.4,4.9,1.1s3.2,1.7,4.3,2.7L139.3,71.2z M114.4,57.5v21.1h21.1c-0.4-1.1-0.8-1.8-1.2-2.3l-17.6-17.6
		C116.2,58.2,115.4,57.8,114.4,57.5z M135.9,143.2V85.7h-23.4c-1.5,0-2.8-0.5-3.8-1.6s-1.6-2.3-1.6-3.8V57h-43v86.2L135.9,143.2
		L135.9,143.2z"/>
	<path class="elgg-svg-avatar-path" style="fill:#FFFFFF;" d="M117.6,93.9V96c0,0.6-0.2,1.1-0.5,1.8c-0.4,0.6-0.8,0.9-1.2,0.9c-1,0-1.5,0-1.6,0
		c-0.5,0.1-0.8,0.4-0.9,0.9c-0.1,0.2-0.1,0.8-0.1,1.8v33c0,0.5-0.2,0.9-0.5,1.2c-0.4,0.4-0.7,0.5-1.2,0.5h-3.1
		c-0.5,0-0.9-0.2-1.2-0.5c-0.4-0.4-0.5-0.7-0.5-1.2V99.6h-4.1v34.9c0,0.5-0.2,0.9-0.5,1.2c-0.3,0.4-0.7,0.5-1.2,0.5h-3.1
		c-0.5,0-0.9-0.2-1.2-0.5s-0.5-0.7-0.5-1.2v-14.2c-2.8-0.2-5.2-0.8-7-1.7c-2.4-1.1-4.2-2.8-5.5-5.1c-1.2-2.2-1.8-4.7-1.8-7.4
		c0-3.2,0.8-5.9,2.5-8.2c1.7-2.3,3.7-3.8,6-4.6c2.1-0.7,6.1-1.1,12-1.1h13.7c0.5,0,0.9,0.2,1.2,0.5
		C117.4,93.1,117.6,93.4,117.6,93.9z"/>
</g>
</svg>
