<?xml version="1.0" encoding="utf-8"?>
<svg xmlns="http://www.w3.org/2000/svg" xmlns:xlink="http://www.w3.org/1999/xlink" x="0px" y="0px" viewBox="0 0 200 200" xml:space="preserve">
<g>
	<rect class="elgg-svg-avatar-backgrond" style="fill:#7A8184;" width="200" height="200"/>
	<polyline class="elgg-svg-avatar-path" style="opacity:0.2;fill:#BCBFC4;" points="200,0 200,200 0,200"/>
	<path class="elgg-svg-avatar-path" style="fill:#FFFFFF;" d="M139.3,71.2c1.1,1.1,1.9,2.5,2.7,4.3c0.7,1.8,1.1,3.5,1.1,4.9V145c0,1.5-0.5,2.8-1.6,3.8
		c-1.1,1.1-2.3,1.6-3.8,1.6H62.3c-1.5,0-2.8-0.5-3.8-1.6c-1.1-1.1-1.6-2.3-1.6-3.8V55.2c0-1.5,0.5-2.8,1.6-3.8s2.3-1.6,3.8-1.6h50.3
		c1.5,0,3.1,0.4,4.9,1.1s3.2,1.7,4.3,2.7L139.3,71.2z M114.4,57.5v21.1h21.1c-0.4-1.1-0.8-1.8-1.2-2.3l-17.6-17.6
		C116.2,58.2,115.4,57.8,114.4,57.5z M135.9,143.2V85.7h-23.4c-1.5,0-2.8-0.5-3.8-1.6s-1.6-2.3-1.6-3.8V57h-43v86.2L135.9,143.2
		L135.9,143.2z"/>
	<path class="elgg-svg-avatar-path" style="fill:#FFFFFF;" d="M115.5,94.1c1.1,0,2,0.4,2.8,1.1c0.8,0.7,1.2,1.6,1.2,2.7c0,1-0.4,2.2-1.1,3.5
		c-5.1,9.7-8.7,15.5-10.8,17.4c-1.5,1.4-3.2,2.1-5,2.1c-1.9,0-3.6-0.7-5-2.2c-1.4-1.4-2.1-3.1-2.1-5.1c0-2,0.7-3.6,2.1-4.9
		l14.8-13.4C113.4,94.5,114.4,94.1,115.5,94.1z M94.5,118c0.6,1.2,1.4,2.2,2.5,3c1.1,0.8,2.2,1.4,3.5,1.8l0,1.7c0.1,3.3-1,6-3,8
		s-4.8,3.1-8.1,3.1c-1.9,0-3.6-0.4-5-1.1c-1.5-0.7-2.6-1.7-3.5-3c-0.9-1.2-1.6-2.6-2-4.2c-0.5-1.6-0.7-3.3-0.7-5.1
		c0.1,0.1,0.4,0.3,1,0.7c0.5,0.4,1,0.7,1.4,1c0.4,0.3,0.9,0.6,1.4,0.8s0.8,0.4,1.1,0.4c0.6,0,1.1-0.3,1.3-0.8c0.4-1,0.8-1.9,1.3-2.6
		c0.5-0.7,1-1.3,1.6-1.8c0.6-0.5,1.2-0.8,2-1.1c0.8-0.3,1.6-0.5,2.4-0.6C92.4,118.1,93.3,118.1,94.5,118z"/>
</g>
</svg>
