<?xml version="1.0" encoding="utf-8"?>
<svg xmlns="http://www.w3.org/2000/svg" xmlns:xlink="http://www.w3.org/1999/xlink" x="0px" y="0px" viewBox="0 0 200 200" xml:space="preserve">
<g>
	<rect class="elgg-svg-avatar-background" style="fill:#7A8184;" width="200" height="200"/>
	<polyline class="elgg-svg-avatar-shade" style="opacity:0.2;fill:#BCBFC4;" points="200,0 200,200 0,200"/>
	<path class="elgg-svg-avatar-path" style="fill:#FFFFFF;" d="M139.3,71.1c1.1,1.1,1.9,2.5,2.7,4.3c0.7,1.8,1.1,3.5,1.1,4.9v64.6c0,1.5-0.5,2.8-1.6,3.8
		c-1.1,1.1-2.3,1.6-3.8,1.6H62.3c-1.5,0-2.8-0.5-3.8-1.6c-1.1-1.1-1.6-2.3-1.6-3.8V55.1c0-1.5,0.5-2.8,1.6-3.8s2.3-1.6,3.8-1.6h50.3
		c1.5,0,3.1,0.4,4.9,1.1s3.2,1.7,4.3,2.7L139.3,71.1z M114.4,57.4v21.1h21.1c-0.4-1.1-0.8-1.8-1.2-2.3l-17.6-17.6
		C116.2,58.1,115.4,57.7,114.4,57.4z M135.9,143.1V85.6h-23.4c-1.5,0-2.8-0.5-3.8-1.6s-1.6-2.3-1.6-3.8V56.9h-43v86.2L135.9,143.1
		L135.9,143.1z M81,130v6h15.8v-6h-4.2l5.8-9c0.2-0.2,0.4-0.6,0.6-0.9s0.3-0.6,0.4-0.7c0.1-0.1,0.2-0.2,0.2-0.2h0.1
		c0,0.1,0.1,0.4,0.3,0.6c0.1,0.1,0.2,0.3,0.2,0.4c0.1,0.1,0.2,0.3,0.4,0.5s0.2,0.3,0.4,0.5l6,9h-4.3v6h16.3v-6h-3.8l-10.8-15.3
		l10.9-15.8h3.8v-6h-15.7v6h4.2l-5.8,8.9c-0.1,0.2-0.4,0.6-0.6,0.9c-0.2,0.4-0.4,0.6-0.5,0.7l-0.1,0.2h-0.1c0-0.1-0.1-0.4-0.3-0.6
		c-0.2-0.4-0.5-0.8-1-1.3l-6-8.9h4.3v-6H81.3v6h3.8l10.6,15.3L84.8,130L81,130L81,130z"/>
</g>
</svg>
