<?xml version="1.0" encoding="utf-8"?>
<svg xmlns="http://www.w3.org/2000/svg" xmlns:xlink="http://www.w3.org/1999/xlink" x="0px" y="0px" viewBox="0 0 200 200" xml:space="preserve">
<g>
	<rect class="elgg-svg-avatar-background" style="fill:#7A8184;" width="200" height="200"/>
	<polyline class="elgg-svg-avatar-shade" style="opacity:0.2;fill:#BCBFC4;" points="200,0 200,200 0,200 		"/>
	<path class="elgg-svg-avatar-path" style="fill:#FFFFFF;" d="M139.3,71.1c1.1,1.1,1.9,2.5,2.7,4.3c0.7,1.8,1.1,3.5,1.1,4.9v64.6c0,1.5-0.5,2.8-1.6,3.8
		c-1.1,1.1-2.3,1.6-3.8,1.6H62.3c-1.5,0-2.8-0.5-3.8-1.6c-1.1-1.1-1.6-2.3-1.6-3.8V55.1c0-1.5,0.5-2.8,1.6-3.8s2.3-1.6,3.8-1.6h50.3
		c1.5,0,3.1,0.4,4.9,1.1s3.2,1.7,4.3,2.7L139.3,71.1z M114.4,57.4v21.1h21.1c-0.4-1.1-0.8-1.8-1.2-2.3l-17.6-17.6
		C116.2,58.1,115.4,57.7,114.4,57.4z M135.9,143.1V85.6h-23.4c-1.5,0-2.8-0.5-3.8-1.6s-1.6-2.3-1.6-3.8V56.9h-43v86.2L135.9,143.1
		L135.9,143.1z M107.1,109.8c1.2,1,2.8,2,4.7,3.1c2.2-0.2,4.4-0.4,6.6-0.4c5.5,0,8.8,0.9,9.9,2.8c0.6,0.8,0.6,1.8,0.1,2.9
		c0,0,0,0.1-0.1,0.1l-0.1,0.1v0.1c-0.2,1.4-1.6,2.1-4,2.1c-1.8,0-4-0.4-6.5-1.1c-2.5-0.7-4.9-1.7-7.3-3c-8.3,0.9-15.6,2.4-22,4.7
		c-5.7,9.8-10.3,14.7-13.6,14.7c-0.6,0-1.1-0.1-1.6-0.4l-1.3-0.7c0,0-0.1-0.1-0.4-0.3c-0.4-0.4-0.5-1.1-0.4-2
		c0.4-1.5,1.4-3.2,3.1-5.2c1.8-1.9,4.2-3.7,7.4-5.4c0.5-0.4,1-0.2,1.3,0.4c0.1,0.1,0.1,0.1,0.1,0.2c1.9-3.2,4-6.9,6-11
		c2.5-5.1,4.5-10,5.8-14.7c-0.9-3.1-1.5-6-1.7-9c-0.2-2.9-0.1-5.3,0.4-7.2c0.4-1.5,1.2-2.3,2.4-2.3h1.2c0.8,0,1.5,0.3,2,0.8
		c0.7,0.8,0.8,2,0.5,3.8c-0.1,0.2-0.1,0.4-0.2,0.5c0,0.1,0.1,0.2,0.1,0.5v1.7c-0.1,4.6-0.4,8.2-0.8,10.8
		C100.9,102.6,103.7,107,107.1,109.8z M74.8,132.9c1.9-0.9,4.5-3.8,7.7-8.9c-1.9,1.5-3.5,3.1-4.9,4.7
		C76.2,130.4,75.3,131.8,74.8,132.9z M97.1,81.2c-0.6,1.6-0.6,4.1-0.1,7.4c0-0.2,0.2-1.1,0.4-2.5c0-0.1,0.1-0.9,0.4-2.4
		c0-0.1,0.1-0.3,0.2-0.5c0,0-0.1-0.1-0.1-0.1s0-0.1,0-0.1c0,0,0,0,0-0.1c0-0.8-0.3-1.5-0.7-2C97.1,81.1,97.1,81.1,97.1,81.2
		L97.1,81.2L97.1,81.2z M90.1,118.4c5-2,10.4-3.5,15.9-4.6c-0.1,0-0.3-0.2-0.7-0.5c-0.4-0.3-0.7-0.6-0.9-0.7
		c-2.9-2.5-5.2-5.8-7.1-9.9c-1,3.2-2.6,6.9-4.7,11C91.5,115.8,90.7,117.3,90.1,118.4z M126.4,117.4c-0.9-0.9-3.5-1.3-7.9-1.3
		c2.9,1.1,5.2,1.6,7,1.6c0.5,0,0.8,0,1-0.1C126.5,117.6,126.4,117.5,126.4,117.4z"/>
</g>
</svg>
