<?xml version="1.0" encoding="utf-8"?>
<svg xmlns="http://www.w3.org/2000/svg" xmlns:xlink="http://www.w3.org/1999/xlink" x="0px" y="0px" viewBox="0 0 200 200" xml:space="preserve">
<g>
	<rect class="elgg-svg-avatar-background" y="-0.1" style="fill:#7A8184;" width="200" height="200"/>
	<polyline class="elgg-svg-avatar-shade" style="opacity:0.2;fill:#BCBFC4;" points="200,-0.1 200,199.9 0,199.9 		"/>
	<path class="elgg-svg-avatar-path" style="fill:#FFFFFF;" d="M139.3,71c1.1,1.1,1.9,2.5,2.7,4.3c0.7,1.8,1.1,3.5,1.1,4.9v64.6c0,1.5-0.5,2.8-1.6,3.8
		c-1.1,1.1-2.3,1.6-3.8,1.6H62.3c-1.5,0-2.8-0.5-3.8-1.6c-1.1-1.1-1.6-2.3-1.6-3.8V55c0-1.5,0.5-2.8,1.6-3.8s2.3-1.6,3.8-1.6h50.3
		c1.5,0,3.1,0.4,4.9,1.1s3.2,1.7,4.3,2.7L139.3,71z M114.4,57.3v21.1h21.1c-0.4-1.1-0.8-1.8-1.2-2.3l-17.6-17.6
		C116.2,58,115.4,57.6,114.4,57.3z M135.9,143V85.5h-23.4c-1.5,0-2.8-0.5-3.8-1.6s-1.6-2.3-1.6-3.8V56.8h-43V143L135.9,143
		L135.9,143z M80.3,129.9v6h18.3v-6h-5.2v-9.4h7.7c2.9,0,5-0.3,6.6-0.8c2.5-0.8,4.5-2.5,6-4.9c1.5-2.4,2.2-5.1,2.2-8.2
		c0-3-0.7-5.7-2.1-7.9c-1.4-2.3-3.2-3.9-5.6-4.9c-1.8-0.7-4.2-1.1-7.3-1.1H80.3v6h5.2v31.2L80.3,129.9L80.3,129.9z M100.1,114.1
		h-6.7v-15h6.7c1.9,0,3.5,0.4,4.7,1c2.1,1.2,3.1,3.4,3.1,6.5c0,3.3-1.2,5.6-3.5,6.7C103.3,113.9,101.8,114.1,100.1,114.1z"/>
</g>
</svg>
