<?xml version="1.0" encoding="utf-8"?>
<svg xmlns="http://www.w3.org/2000/svg" xmlns:xlink="http://www.w3.org/1999/xlink" x="0px" y="0px" viewBox="0 0 200 200" xml:space="preserve">
<g>
	<rect class="elgg-svg-avatar-background" style="fill:#7A8184;" width="200" height="200"/>
	<polyline class="elgg-svg-avatar-shade" style="opacity:0.2;fill:#BCBFC4;" points="200,0 200,200 0,200"/>
	<path class="elgg-svg-avatar-path" style="fill:#FFFFFF;" d="M139.3,71.1c1.1,1.1,1.9,2.5,2.7,4.3c0.7,1.8,1.1,3.5,1.1,4.9v64.6c0,1.5-0.5,2.8-1.6,3.8
		c-1.1,1.1-2.3,1.6-3.8,1.6H62.3c-1.5,0-2.8-0.5-3.8-1.6c-1.1-1.1-1.6-2.3-1.6-3.8V55.1c0-1.5,0.5-2.8,1.6-3.8s2.3-1.6,3.8-1.6h50.3
		c1.5,0,3.1,0.4,4.9,1.1s3.2,1.7,4.3,2.7L139.3,71.1z M114.4,57.4v21.1h21.1c-0.4-1.1-0.8-1.8-1.2-2.3l-17.6-17.6
		C116.2,58.1,115.4,57.7,114.4,57.4z M135.9,143.1V85.6h-23.4c-1.5,0-2.8-0.5-3.8-1.6s-1.6-2.3-1.6-3.8V56.9h-43v86.2L135.9,143.1
		L135.9,143.1z"/>
	<path class="elgg-svg-avatar-path" style="fill:#FFFFFF;" d="M122.3,119V97.6c0-0.2-0.1-0.4-0.2-0.6c-0.2-0.2-0.4-0.2-0.6-0.2H80.4c-0.2,0-0.4,0.1-0.6,0.2
		c-0.2,0.2-0.2,0.4-0.2,0.6V119c0,0.2,0.1,0.4,0.2,0.6c0.2,0.2,0.4,0.2,0.6,0.2h41.1c0.2,0,0.4-0.1,0.6-0.2
		C122.2,119.4,122.3,119.2,122.3,119z M125.6,97.6v27.9c0,1.1-0.4,2.1-1.2,2.9c-0.8,0.8-1.8,1.2-2.9,1.2h-14c0,0.6,0.1,1.3,0.4,2
		c0.3,0.7,0.6,1.3,0.8,1.8c0.3,0.5,0.4,0.9,0.4,1.1c0,0.5-0.2,0.8-0.5,1.2c-0.3,0.3-0.7,0.5-1.2,0.5H94.4c-0.5,0-0.8-0.2-1.2-0.5
		c-0.3-0.3-0.5-0.7-0.5-1.2c0-0.2,0.1-0.6,0.4-1.1c0.3-0.5,0.6-1.1,0.8-1.8c0.2-0.7,0.4-1.3,0.4-2h-14c-1.1,0-2.1-0.4-2.9-1.2
		c-0.8-0.8-1.2-1.8-1.2-2.9V97.6c0-1.1,0.4-2.1,1.2-2.9s1.8-1.2,2.9-1.2h41.1c1.1,0,2.1,0.4,2.9,1.2
		C125.2,95.5,125.6,96.5,125.6,97.6z"/>
	<path class="elgg-svg-avatar-path" style="fill:#FFFFFF;" d="M107.7,108.7l-12.1,6.7c-0.1,0.1-0.2,0.1-0.4,0c-0.1-0.1-0.1-0.2-0.1-0.3v-13.4
		c0-0.1,0-0.3,0.1-0.3c0.1-0.1,0.2,0,0.4,0l12.1,6.7c0.1,0.1,0.2,0.2,0.2,0.3C108,108.6,107.9,108.7,107.7,108.7z"/>
</g>
</svg>
