<?xml version="1.0" encoding="utf-8"?>
<svg xmlns="http://www.w3.org/2000/svg" xmlns:xlink="http://www.w3.org/1999/xlink" x="0px" y="0px" viewBox="0 0 200 200" xml:space="preserve">
<g>
	<rect class="elgg-svg-avatar-background" style="fill:#7A8184;" width="200" height="200"/>
	<polyline class="elgg-svg-avatar-shade" style="opacity:0.2;fill:#BCBFC4;" points="200,0 200,200 0,200"/>
	<path class="elgg-svg-avatar-path" style="fill:#FFFFFF;" d="M139.3,71.1c1.1,1.1,1.9,2.5,2.7,4.3c0.7,1.8,1.1,3.5,1.1,4.9v64.6c0,1.5-0.5,2.8-1.6,3.8
		c-1.1,1.1-2.3,1.6-3.8,1.6H62.3c-1.5,0-2.8-0.5-3.8-1.6c-1.1-1.1-1.6-2.3-1.6-3.8V55.1c0-1.5,0.5-2.8,1.6-3.8s2.3-1.6,3.8-1.6h50.3
		c1.5,0,3.1,0.4,4.9,1.1s3.2,1.7,4.3,2.7L139.3,71.1z M114.4,57.4v21.1h21.1c-0.4-1.1-0.8-1.8-1.2-2.3l-17.6-17.6
		C116.2,58.1,115.4,57.7,114.4,57.4z M135.9,143.1V85.6h-23.4c-1.5,0-2.8-0.5-3.8-1.6s-1.6-2.3-1.6-3.8V56.9h-43v86.2L135.9,143.1
		L135.9,143.1z M90.9,129.2v-5.4c0-0.2-0.1-0.5-0.2-0.6c-0.2-0.2-0.4-0.2-0.6-0.2H81c-0.2,0-0.5,0.1-0.6,0.2
		c-0.2,0.2-0.2,0.4-0.2,0.6v5.4c0,0.2,0.1,0.5,0.2,0.6c0.2,0.2,0.4,0.2,0.6,0.2H90c0.2,0,0.5-0.1,0.6-0.2
		C90.8,129.7,90.9,129.5,90.9,129.2z M90.9,118.3v-5.4c0-0.2-0.1-0.5-0.2-0.6c-0.2-0.1-0.4-0.2-0.6-0.2H81c-0.2,0-0.5,0.1-0.6,0.2
		c-0.2,0.2-0.2,0.4-0.2,0.6v5.4c0,0.2,0.1,0.5,0.2,0.6c0.2,0.2,0.4,0.2,0.6,0.2H90c0.2,0,0.5-0.1,0.6-0.2
		C90.8,118.8,90.9,118.6,90.9,118.3z M105.5,129.2v-5.4c0-0.2-0.1-0.5-0.2-0.6c-0.2-0.2-0.4-0.2-0.6-0.2h-9.1
		c-0.2,0-0.5,0.1-0.6,0.2c-0.2,0.2-0.2,0.4-0.2,0.6v5.4c0,0.2,0.1,0.5,0.2,0.6c0.2,0.2,0.4,0.2,0.6,0.2h9.1c0.2,0,0.5-0.1,0.6-0.2
		C105.3,129.7,105.5,129.5,105.5,129.2z M90.9,107.5V102c0-0.2-0.1-0.5-0.2-0.6c-0.2-0.2-0.4-0.2-0.6-0.2H81c-0.2,0-0.5,0.1-0.6,0.2
		c-0.2,0.2-0.2,0.4-0.2,0.6v5.4c0,0.2,0.1,0.5,0.2,0.6c0.2,0.2,0.4,0.2,0.6,0.2H90c0.2,0,0.5-0.1,0.6-0.2
		C90.8,107.9,90.9,107.7,90.9,107.5z M105.5,118.3v-5.4c0-0.2-0.1-0.5-0.2-0.6s-0.4-0.2-0.6-0.2h-9.1c-0.2,0-0.5,0.1-0.6,0.2
		s-0.2,0.4-0.2,0.6v5.4c0,0.2,0.1,0.5,0.2,0.6s0.4,0.2,0.6,0.2h9.1c0.2,0,0.5-0.1,0.6-0.2C105.3,118.8,105.5,118.6,105.5,118.3z
		 M120,129.2v-5.4c0-0.2-0.1-0.5-0.2-0.6c-0.2-0.2-0.4-0.2-0.6-0.2H110c-0.2,0-0.5,0.1-0.6,0.2c-0.2,0.2-0.2,0.4-0.2,0.6v5.4
		c0,0.2,0.1,0.5,0.2,0.6c0.2,0.2,0.4,0.2,0.6,0.2h9.1c0.2,0,0.5-0.1,0.6-0.2C119.9,129.7,120,129.5,120,129.2z M105.5,107.5V102
		c0-0.2-0.1-0.5-0.2-0.6c-0.2-0.2-0.4-0.2-0.6-0.2h-9.1c-0.2,0-0.5,0.1-0.6,0.2c-0.2,0.2-0.2,0.4-0.2,0.6v5.4c0,0.2,0.1,0.5,0.2,0.6
		c0.2,0.2,0.4,0.2,0.6,0.2h9.1c0.2,0,0.5-0.1,0.6-0.2C105.3,107.9,105.5,107.7,105.5,107.5z M120,118.3v-5.4c0-0.2-0.1-0.5-0.2-0.6
		c-0.2-0.2-0.4-0.2-0.6-0.2H110c-0.2,0-0.5,0.1-0.6,0.2c-0.1,0.2-0.2,0.4-0.2,0.6v5.4c0,0.2,0.1,0.5,0.2,0.6
		c0.2,0.1,0.4,0.2,0.6,0.2h9.1c0.2,0,0.5-0.1,0.6-0.2C119.9,118.8,120,118.6,120,118.3z M120,107.5V102c0-0.2-0.1-0.5-0.2-0.6
		c-0.2-0.2-0.4-0.2-0.6-0.2H110c-0.2,0-0.5,0.1-0.6,0.2c-0.2,0.2-0.2,0.4-0.2,0.6v5.4c0,0.2,0.1,0.5,0.2,0.6
		c0.2,0.2,0.4,0.2,0.6,0.2h9.1c0.2,0,0.5-0.1,0.6-0.2C119.9,107.9,120,107.7,120,107.5z M123.6,98.4v30.8c0,1.2-0.5,2.3-1.3,3.2
		s-1.9,1.3-3.2,1.3H80.9c-1.2,0-2.3-0.5-3.2-1.3s-1.3-1.9-1.3-3.2V98.4c0-1.2,0.5-2.3,1.3-3.2c0.9-0.9,1.9-1.3,3.2-1.3H119
		c1.2,0,2.3,0.5,3.2,1.3C123.1,96.1,123.6,97.1,123.6,98.4z"/>
</g>
</svg>
