<?xml version="1.0" encoding="utf-8"?>
<svg xmlns="http://www.w3.org/2000/svg" xmlns:xlink="http://www.w3.org/1999/xlink" x="0px" y="0px" viewBox="0 0 200 200" xml:space="preserve">
<g>
	<rect class="elgg-svg-avatar-background" style="fill:#7A8184;" width="200" height="200"/>
	<polyline class="elgg-svg-avatar-shade" style="opacity:0.2;fill:#BCBFC4;" points="200,0 200,200 0,200"/>
	<path class="elgg-svg-avatar-path" style="fill:#FFFFFF;" d="M139.3,71.1c1.1,1.1,1.9,2.5,2.7,4.3c0.7,1.8,1.1,3.5,1.1,4.9v64.6c0,1.5-0.5,2.8-1.6,3.8
		c-1.1,1.1-2.3,1.6-3.8,1.6H62.3c-1.5,0-2.8-0.5-3.8-1.6c-1.1-1.1-1.6-2.3-1.6-3.8V55.1c0-1.5,0.5-2.8,1.6-3.8s2.3-1.6,3.8-1.6h50.3
		c1.5,0,3.1,0.4,4.9,1.1s3.2,1.7,4.3,2.7L139.3,71.1z M114.4,57.4v21.1h21.1c-0.4-1.1-0.8-1.8-1.2-2.3l-17.6-17.6
		C116.2,58.1,115.4,57.7,114.4,57.4z M135.9,143.1V85.6h-23.4c-1.5,0-2.8-0.5-3.8-1.6s-1.6-2.3-1.6-3.8V56.9h-43v86.2L135.9,143.1
		L135.9,143.1z"/>
	<path class="elgg-svg-avatar-path" style="fill:#FFFFFF;" d="M107.6,130c0,2.2-0.7,3.9-2,5.1c-1.3,1.3-3.1,1.9-5.3,1.9H76.7c-2.2,0-3.9-0.6-5.3-1.9
		c-1.3-1.3-2-3-2-5.1c0-1,0-1.9,0.1-2.8c0.1-0.9,0.2-1.9,0.4-3c0.2-1.1,0.4-2,0.7-2.9s0.7-1.8,1.2-2.6c0.5-0.8,1.1-1.6,1.7-2.2
		c0.6-0.6,1.4-1.1,2.3-1.4c0.9-0.4,1.9-0.5,3-0.5c0.2,0,0.5,0.2,1.1,0.6s1.3,0.8,2,1.3s1.7,0.9,2.9,1.3c1.2,0.4,2.4,0.6,3.6,0.6
		s2.4-0.2,3.6-0.6s2.2-0.8,2.9-1.3c0.7-0.5,1.4-0.9,2-1.3c0.6-0.4,1-0.6,1.1-0.6c1.1,0,2.1,0.2,3,0.5c0.9,0.4,1.7,0.8,2.3,1.4
		s1.2,1.3,1.7,2.2c0.5,0.8,0.9,1.7,1.2,2.6c0.3,0.9,0.5,1.9,0.7,2.9s0.3,2,0.4,3C107.6,128.2,107.6,129.1,107.6,130z M99,105.9
		c0,2.9-1,5.3-3,7.3c-2,2-4.5,3-7.3,3s-5.3-1-7.3-3c-2-2-3-4.5-3-7.3c0-2.9,1-5.3,3-7.3c2-2,4.5-3,7.3-3s5.3,1,7.3,3
		C97.9,100.6,99,103,99,105.9z"/>
	<path class="elgg-svg-avatar-path" style="fill:#FFFFFF;" d="M130.9,107.9v1.8c0,0.2-0.1,0.5-0.3,0.6c-0.2,0.2-0.4,0.3-0.6,0.3h-20c-0.2,0-0.5-0.1-0.6-0.3
		s-0.3-0.4-0.3-0.6v-1.8c0-0.2,0.1-0.5,0.3-0.6s0.4-0.3,0.6-0.3h20c0.2,0,0.5,0.1,0.6,0.3C130.8,107.4,130.9,107.6,130.9,107.9z
		 M130.9,100.6v1.8c0,0.2-0.1,0.5-0.3,0.6c-0.2,0.2-0.4,0.3-0.6,0.3h-20c-0.2,0-0.5-0.1-0.6-0.3s-0.3-0.4-0.3-0.6v-1.8
		c0-0.2,0.1-0.5,0.3-0.6s0.4-0.3,0.6-0.3h20c0.2,0,0.5,0.1,0.6,0.3C130.8,100.2,130.9,100.4,130.9,100.6z M130.9,93.3v1.8
		c0,0.2-0.1,0.5-0.3,0.6c-0.2,0.2-0.4,0.3-0.6,0.3h-20c-0.2,0-0.5-0.1-0.6-0.3s-0.3-0.4-0.3-0.6v-1.8c0-0.2,0.1-0.5,0.3-0.6
		c0.2-0.2,0.4-0.3,0.6-0.3h20c0.2,0,0.5,0.1,0.6,0.3C130.8,92.9,130.9,93.1,130.9,93.3z"/>
</g>
</svg>
